<?xml version="1.0" encoding="iso-8859-1"?>
<!-- Generator: Adobe Illustrator 19.0.0, SVG Export Plug-In . SVG Version: 6.00 Build 0)  -->
<svg version="1.1" id="Capa_1" xmlns="http://www.w3.org/2000/svg" xmlns:xlink="http://www.w3.org/1999/xlink" x="0px" y="0px"
	 viewBox="0 0 496.941 496.941" style="enable-background:new 0 0 496.941 496.941;" xml:space="preserve">
<g>
	<g>
		<g>
			<path d="M489.412,198.776H299.671V7.529c0-4.518-3.012-7.529-7.529-7.529H30.871c-4.518,0-7.529,3.012-7.529,7.529V217.6
				c0,4.518,3.012,7.529,7.529,7.529c4.518,0,7.529-3.012,7.529-7.529V15.059h246.212v420.894H73.035v-29.365
				c32.376-3.765,57.976-31.624,57.976-64.753c0-33.882-53.459-108.424-59.482-116.706c-3.012-3.765-9.035-3.765-12.047,0
				C53.459,232.659,0,307.953,0,341.082c0,33.882,25.6,61.741,57.976,64.753c0,42.165,0,44.424,0,75.294l-50.447,0.753
				c-4.518,0-7.529,3.012-7.529,7.529s3.012,7.529,7.529,7.529c0,0,479.623,0,481.882,0c4.518,0,7.529-3.012,7.529-7.529V206.306
				C496.941,201.788,493.929,198.776,489.412,198.776z M65.506,339.576c-4.518,0-7.529,3.012-7.529,7.529v44.424
				c-24.094-3.765-42.918-24.847-42.918-50.447c0-21.835,32.376-73.035,50.447-99.388c18.071,26.353,50.447,78.306,50.447,99.388
				c0,25.6-18.824,45.929-42.918,49.694v-43.671C73.035,342.588,70.024,339.576,65.506,339.576z M284.612,481.882H73.035v-30.871
				h211.576V481.882z M417.129,481.882h-52.706v-0.753V366.682h52.706V481.882z M481.882,481.882h-49.694V359.153
				c0-4.518-3.012-7.529-7.529-7.529h-67.765c-4.518,0-7.529,3.012-7.529,7.529v122.729h-49.694V213.835h182.212V481.882z"/>
			<path d="M78.306,114.447h57.976c4.518,0,7.529-3.012,7.529-7.529V47.435c0-4.518-3.012-7.529-7.529-7.529H78.306
				c-4.518,0-7.529,3.012-7.529,7.529v59.482C70.776,111.435,74.541,114.447,78.306,114.447z M85.835,54.965h42.918v44.424H85.835
				V54.965z"/>
			<path d="M185.976,114.447h57.977c4.518,0,7.529-3.012,7.529-7.529V47.435c0-4.518-3.012-7.529-7.529-7.529h-57.977
				c-4.518,0-7.529,3.012-7.529,7.529v59.482C178.447,111.435,182.212,114.447,185.976,114.447z M193.506,54.965h42.918v44.424
				h-42.918V54.965z"/>
			<path d="M78.306,213.082h57.976c4.518,0,7.529-3.012,7.529-7.529v-59.482c0-4.518-3.012-7.529-7.529-7.529H78.306
				c-4.518,0-7.529,3.012-7.529,7.529c0,0,0,59.482,0,59.482C70.776,210.071,73.788,213.082,78.306,213.082z M85.835,154.353h42.918
				v44.424H85.835V154.353z"/>
			<path d="M178.447,205.553c0,4.518,3.012,7.529,7.529,7.529h57.977c4.518,0,7.529-3.012,7.529-7.529v-59.482
				c0-4.518-3.012-7.529-7.529-7.529h-57.977c-4.518,0-7.529,3.012-7.529,7.529V205.553z M193.506,154.353h42.918v44.424h-42.918
				V154.353z"/>
			<path d="M178.447,302.682c0,4.518,3.012,7.529,7.529,7.529h57.977c4.518,0,7.529-3.012,7.529-7.529V243.2
				c0-4.518-3.012-7.529-7.529-7.529h-57.977c-4.518,0-7.529,3.012-7.529,7.529V302.682z M193.506,250.729h42.918v44.424h-42.918
				V250.729z"/>
			<path d="M178.447,399.812c0,4.518,3.012,7.529,7.529,7.529h57.977c4.518,0,7.529-3.012,7.529-7.529v-59.482
				c0-4.518-3.012-7.529-7.529-7.529h-57.977c-4.518,0-7.529,3.012-7.529,7.529V399.812z M193.506,347.859h42.918v44.424h-42.918
				V347.859z"/>
			<path d="M327.529,304.941h48.941c4.518,0,7.529-3.012,7.529-7.529v-48.941c0-4.518-3.012-7.529-7.529-7.529h-48.941
				c-4.518,0-7.529,3.012-7.529,7.529v48.941C320,301.929,323.765,304.941,327.529,304.941z M335.059,256h33.882v33.882h-33.882V256
				z"/>
			<path d="M406.588,304.941h48.941c4.518,0,7.529-3.012,7.529-7.529v-48.941c0-4.518-3.012-7.529-7.529-7.529h-48.941
				c-4.518,0-7.529,3.012-7.529,7.529v48.941C399.059,301.929,402.071,304.941,406.588,304.941z M414.118,256H448v33.882h-33.882
				V256z"/>
		</g>
	</g>
</g>
<g>
</g>
<g>
</g>
<g>
</g>
<g>
</g>
<g>
</g>
<g>
</g>
<g>
</g>
<g>
</g>
<g>
</g>
<g>
</g>
<g>
</g>
<g>
</g>
<g>
</g>
<g>
</g>
<g>
</g>
</svg>
