<svg xmlns="http://www.w3.org/2000/svg" xmlns:xlink="http://www.w3.org/1999/xlink" viewBox="0 0 395.13 232.83"><defs><style>.cls-1,.cls-3{fill:none;}.cls-2{fill:#069aac;stroke:#91c9e2;}.cls-2,.cls-3{stroke-miterlimit:10;}.cls-3{stroke:#3c8dba;stroke-width:5.95px;}.cls-4{clip-path:url(#clip-path);}.cls-5{fill:#2c5f72;}.cls-6{fill:#2f4550;}</style><clipPath id="clip-path" transform="translate(0 -21.86)"><polygon class="cls-1" points="88.98 102.53 122.45 142.27 198.07 52.16 273.82 140.2 306.2 100.6 274.64 13.25 144.31 0 93.26 58.23 88.98 102.53"/></clipPath></defs><title>Asset 1</title><g id="Layer_2" data-name="Layer 2"><g id="Objects"><rect class="cls-2" x="177.8" y="90.13" width="19.7" height="20.02"/><rect class="cls-2" x="201.43" y="90.13" width="19.7" height="20.02"/><rect class="cls-2" x="177.8" y="113.82" width="19.7" height="20.01"/><rect class="cls-2" x="201.43" y="113.82" width="19.7" height="20.01"/><line class="cls-3" x1="231.3" y1="72.6" x2="231.3" y2="39.97"/><g class="cls-4"><ellipse class="cls-2" cx="198.34" cy="116.41" rx="114.04" ry="115.91"/></g><path class="cls-5" d="M134,148.88c-1.74-2.21-3.48-4.43-5.24-6.62q-4.65-5.79-9.36-11.53T110,119.32c-3.17-3.8-6.41-7.53-9.61-11.3l-9.72-11.2L80.79,85.73l-4-4.49-3.9,4.54L63.36,96.89,53.91,108.1q-9.4,11.24-18.57,22.7c-6.1,7.64-12.14,15.35-18.05,23.17-2.92,3.94-5.89,7.83-8.77,11.81s-5.75,8-8.52,12c3.64-3.29,7.18-6.68,10.69-10.08s7-6.88,10.46-10.31c6.9-6.93,13.67-14,20.38-21.07s13.32-14.29,19.87-21.54l9.77-10.92,5.75-6.54,6,6.61,10,10.92c3.38,3.61,6.72,7.25,10.13,10.82s6.81,7.17,10.25,10.72,6.89,7.08,10.37,10.59c2,2,4.08,4.07,6.13,6.09Z" transform="translate(0 -21.86)"/><path class="cls-5" d="M386.35,165.75c-1.47-2-3-3.95-4.5-5.93l-4.53-5.91q-4.57-5.85-9.21-11.65t-9.37-11.53Q354,125,349.25,119.32c-3.17-3.8-6.41-7.53-9.61-11.3l-9.72-11.2-9.83-11.09-4-4.49-3.91,4.54-9.55,11.11-9.45,11.21q-9.39,11.24-18.57,22.7-6.4,8-12.66,16.16l4.39,5c5-5.11,9.56-10.4,14.47-15.59q10.05-10.67,19.86-21.54l9.77-10.92,5.75-6.54,5.95,6.61,10,10.92c3.37,3.61,6.71,7.25,10.13,10.82s6.8,7.17,10.24,10.72,6.89,7.08,10.37,10.59,7,7,10.52,10.46l5.34,5.16c1.79,1.71,3.55,3.45,5.38,5.13,3.6,3.39,7.22,6.77,11,10C392.27,173.73,389.32,169.73,386.35,165.75Z" transform="translate(0 -21.86)"/><path class="cls-6" d="M72.73,201.48c9.82-12.51,19.88-24.82,29.94-37.13s20.23-24.52,30.47-36.67S153.68,103.43,164,91.31l31.11-36.12,2.68-3.1,2.71,3.07,32,36.11,15.86,18.16,7.93,9.08,7.87,9.14c5.24,6.1,10.51,12.16,15.72,18.29l15.61,18.38c10.33,12.33,20.68,24.63,30.79,37.16-11.3-11.46-22.35-23.14-33.42-34.81l-16.49-17.6c-5.5-5.86-10.93-11.8-16.39-17.69l-8.19-8.86-8.12-8.9L227.34,95.79,195.1,59.94l5.39,0L169.07,95.76c-10.56,11.86-21,23.81-31.71,35.59s-21.31,23.57-32,35.3S83.75,190,72.73,201.48Z" transform="translate(0 -21.86)"/></g></g></svg>